<mxfile host="app.diagrams.net" modified="2024-02-12T20:20:09.386Z" agent="Mozilla/5.0 (X11; Linux x86_64) AppleWebKit/537.36 (KHTML, like Gecko) Chrome/121.0.0.0 Safari/537.36" etag="EmF1-bfGsZb-F_ChsAnJ" version="23.1.2" type="device">
  <diagram name="Stránka-1" id="hp3DllEChL5aQRAPkU0n">
    <mxGraphModel dx="1301" dy="759" grid="1" gridSize="10" guides="1" tooltips="1" connect="1" arrows="1" fold="1" page="1" pageScale="1" pageWidth="827" pageHeight="1169" math="0" shadow="0">
      <root>
        <mxCell id="0" />
        <mxCell id="1" parent="0" />
        <mxCell id="UREclnvk__gFeF24geMN-32" style="edgeStyle=orthogonalEdgeStyle;rounded=0;orthogonalLoop=1;jettySize=auto;html=1;exitX=1;exitY=0.75;exitDx=0;exitDy=0;entryX=0.5;entryY=0;entryDx=0;entryDy=0;" edge="1" parent="1" source="UREclnvk__gFeF24geMN-17" target="UREclnvk__gFeF24geMN-14">
          <mxGeometry relative="1" as="geometry" />
        </mxCell>
        <mxCell id="UREclnvk__gFeF24geMN-33" style="edgeStyle=orthogonalEdgeStyle;rounded=0;orthogonalLoop=1;jettySize=auto;html=1;exitX=1;exitY=0.25;exitDx=0;exitDy=0;entryX=0.5;entryY=0;entryDx=0;entryDy=0;" edge="1" parent="1" source="UREclnvk__gFeF24geMN-17" target="UREclnvk__gFeF24geMN-13">
          <mxGeometry relative="1" as="geometry" />
        </mxCell>
        <mxCell id="UREclnvk__gFeF24geMN-17" value="" style="rounded=0;whiteSpace=wrap;html=1;" vertex="1" parent="1">
          <mxGeometry x="130" y="300" width="250" height="70" as="geometry" />
        </mxCell>
        <mxCell id="UREclnvk__gFeF24geMN-6" value="" style="swimlane;startSize=0;fillColor=#d0cee2;strokeColor=#56517e;" vertex="1" parent="1">
          <mxGeometry x="-10" y="450" width="160" height="160" as="geometry" />
        </mxCell>
        <mxCell id="UREclnvk__gFeF24geMN-31" style="edgeStyle=orthogonalEdgeStyle;rounded=0;orthogonalLoop=1;jettySize=auto;html=1;exitX=0.5;exitY=0;exitDx=0;exitDy=0;entryX=0;entryY=0.25;entryDx=0;entryDy=0;" edge="1" parent="1" source="UREclnvk__gFeF24geMN-7" target="UREclnvk__gFeF24geMN-17">
          <mxGeometry relative="1" as="geometry" />
        </mxCell>
        <mxCell id="UREclnvk__gFeF24geMN-7" value="&lt;font style=&quot;font-size: 20px;&quot;&gt;S₀₀&lt;/font&gt;" style="whiteSpace=wrap;html=1;aspect=fixed;fillColor=#d0cee2;strokeColor=#56517e;" vertex="1" parent="1">
          <mxGeometry x="-10" y="450" width="80" height="80" as="geometry" />
        </mxCell>
        <mxCell id="UREclnvk__gFeF24geMN-30" style="edgeStyle=orthogonalEdgeStyle;rounded=0;orthogonalLoop=1;jettySize=auto;html=1;exitX=0.5;exitY=0;exitDx=0;exitDy=0;entryX=0;entryY=0.75;entryDx=0;entryDy=0;" edge="1" parent="1" source="UREclnvk__gFeF24geMN-8" target="UREclnvk__gFeF24geMN-17">
          <mxGeometry relative="1" as="geometry" />
        </mxCell>
        <mxCell id="UREclnvk__gFeF24geMN-8" value="&lt;font style=&quot;font-size: 20px;&quot;&gt;S₀₁&lt;/font&gt;" style="whiteSpace=wrap;html=1;aspect=fixed;fillColor=#d0cee2;strokeColor=#56517e;fontStyle=1;" vertex="1" parent="1">
          <mxGeometry x="70" y="450" width="80" height="80" as="geometry" />
        </mxCell>
        <mxCell id="UREclnvk__gFeF24geMN-10" value="S₁₁" style="whiteSpace=wrap;html=1;aspect=fixed;fillColor=#d0cee2;strokeColor=#56517e;fontSize=20;fontStyle=1;" vertex="1" parent="1">
          <mxGeometry x="70" y="530" width="80" height="80" as="geometry" />
        </mxCell>
        <mxCell id="UREclnvk__gFeF24geMN-9" value="S₁₀" style="whiteSpace=wrap;html=1;aspect=fixed;fillColor=#d0cee2;strokeColor=#56517e;fontSize=20;fontStyle=0;" vertex="1" parent="1">
          <mxGeometry x="-10" y="530" width="80" height="80" as="geometry" />
        </mxCell>
        <mxCell id="UREclnvk__gFeF24geMN-12" value="" style="swimlane;startSize=0;fillColor=#d0cee2;strokeColor=#56517e;" vertex="1" parent="1">
          <mxGeometry x="360" y="450" width="160" height="160" as="geometry" />
        </mxCell>
        <mxCell id="UREclnvk__gFeF24geMN-13" value="&lt;font style=&quot;font-size: 20px;&quot;&gt;S₀₀&lt;/font&gt;" style="whiteSpace=wrap;html=1;aspect=fixed;fillColor=#d0cee2;strokeColor=#56517e;" vertex="1" parent="1">
          <mxGeometry x="360" y="450" width="80" height="80" as="geometry" />
        </mxCell>
        <mxCell id="UREclnvk__gFeF24geMN-14" value="&lt;font style=&quot;font-size: 20px;&quot;&gt;S₀₁&lt;/font&gt;" style="whiteSpace=wrap;html=1;aspect=fixed;fillColor=#d0cee2;strokeColor=#56517e;fontStyle=1;" vertex="1" parent="1">
          <mxGeometry x="440" y="450" width="80" height="80" as="geometry" />
        </mxCell>
        <mxCell id="UREclnvk__gFeF24geMN-15" value="S₁₁" style="whiteSpace=wrap;html=1;aspect=fixed;fillColor=#d0cee2;strokeColor=#56517e;fontSize=20;fontStyle=1;" vertex="1" parent="1">
          <mxGeometry x="440" y="530" width="80" height="80" as="geometry" />
        </mxCell>
        <mxCell id="UREclnvk__gFeF24geMN-16" value="S₁₀" style="whiteSpace=wrap;html=1;aspect=fixed;fillColor=#d0cee2;strokeColor=#56517e;fontSize=20;fontStyle=0;" vertex="1" parent="1">
          <mxGeometry x="360" y="530" width="80" height="80" as="geometry" />
        </mxCell>
        <mxCell id="UREclnvk__gFeF24geMN-19" value="&lt;font style=&quot;font-size: 47px;&quot;&gt;[&lt;/font&gt;" style="rounded=0;whiteSpace=wrap;html=1;strokeColor=none;fontStyle=0;fontSize=47;" vertex="1" parent="1">
          <mxGeometry x="148.44" y="300" width="24.12" height="60" as="geometry" />
        </mxCell>
        <mxCell id="UREclnvk__gFeF24geMN-21" value="&lt;font style=&quot;font-size: 16px;&quot;&gt;9&lt;br&gt;2&lt;br&gt;&lt;/font&gt;" style="rounded=0;whiteSpace=wrap;html=1;strokeColor=none;fontStyle=0;fillColor=none;" vertex="1" parent="1">
          <mxGeometry x="170" y="315" width="20" height="40" as="geometry" />
        </mxCell>
        <mxCell id="UREclnvk__gFeF24geMN-22" value="]" style="rounded=0;whiteSpace=wrap;html=1;strokeColor=none;fontStyle=0;fontSize=47;fillColor=none;" vertex="1" parent="1">
          <mxGeometry x="210" y="300" width="20" height="60" as="geometry" />
        </mxCell>
        <mxCell id="UREclnvk__gFeF24geMN-23" value="&lt;font style=&quot;font-size: 16px;&quot;&gt;2&lt;br&gt;9&lt;br&gt;&lt;/font&gt;" style="rounded=0;whiteSpace=wrap;html=1;strokeColor=none;fontStyle=0;fillColor=none;" vertex="1" parent="1">
          <mxGeometry x="190" y="315" width="20" height="40" as="geometry" />
        </mxCell>
        <mxCell id="UREclnvk__gFeF24geMN-24" value="&lt;font style=&quot;font-size: 16px;&quot;&gt;x&lt;br&gt;&lt;/font&gt;" style="rounded=0;whiteSpace=wrap;html=1;strokeColor=none;fontStyle=0;fillColor=none;" vertex="1" parent="1">
          <mxGeometry x="230" y="315" width="20" height="40" as="geometry" />
        </mxCell>
        <mxCell id="UREclnvk__gFeF24geMN-25" value="&lt;font style=&quot;font-size: 47px;&quot;&gt;[&lt;/font&gt;" style="rounded=0;whiteSpace=wrap;html=1;strokeColor=none;fontStyle=0;fontSize=47;" vertex="1" parent="1">
          <mxGeometry x="250" y="300" width="24.12" height="60" as="geometry" />
        </mxCell>
        <mxCell id="UREclnvk__gFeF24geMN-26" value="]" style="rounded=0;whiteSpace=wrap;html=1;strokeColor=none;fontStyle=0;fontSize=47;fillColor=none;" vertex="1" parent="1">
          <mxGeometry x="280" y="300" width="20" height="60" as="geometry" />
        </mxCell>
        <mxCell id="UREclnvk__gFeF24geMN-27" value="&lt;font style=&quot;font-size: 16px;&quot;&gt;=&lt;br&gt;&lt;/font&gt;" style="rounded=0;whiteSpace=wrap;html=1;strokeColor=none;fontStyle=0;fillColor=none;" vertex="1" parent="1">
          <mxGeometry x="300" y="315" width="20" height="40" as="geometry" />
        </mxCell>
        <mxCell id="UREclnvk__gFeF24geMN-28" value="&lt;font style=&quot;font-size: 47px;&quot;&gt;[&lt;/font&gt;" style="rounded=0;whiteSpace=wrap;html=1;strokeColor=none;fontStyle=0;fontSize=47;" vertex="1" parent="1">
          <mxGeometry x="310" y="300" width="24.12" height="60" as="geometry" />
        </mxCell>
        <mxCell id="UREclnvk__gFeF24geMN-29" value="]" style="rounded=0;whiteSpace=wrap;html=1;strokeColor=none;fontStyle=0;fontSize=47;fillColor=none;" vertex="1" parent="1">
          <mxGeometry x="340" y="300" width="20" height="60" as="geometry" />
        </mxCell>
      </root>
    </mxGraphModel>
  </diagram>
</mxfile>
